<?xml version="1.0" standalone="no"?>
<!DOCTYPE svg PUBLIC "-//W3C//DTD SVG 20010904//EN"
 "http://www.w3.org/TR/2001/REC-SVG-20010904/DTD/svg10.dtd">
<svg version="1.0" xmlns="http://www.w3.org/2000/svg"
 width="260.000000pt" height="260.000000pt" viewBox="0 0 260.000000 260.000000"
 preserveAspectRatio="xMidYMid meet">
<metadata>
Created by potrace 1.11, written by Peter Selinger 2001-2013
</metadata>
<g transform="translate(0.000000,260.000000) scale(0.100000,-0.100000)"
fill="#000000" stroke="none">
<path d="M1280 2249 c-440 -54 -779 -312 -880 -670 -30 -104 -37 -273 -16
-362 42 -179 157 -284 319 -295 87 -5 140 8 195 48 144 104 195 328 113 494
-34 69 -114 159 -152 171 -43 14 -44 -11 -6 -92 45 -98 61 -189 54 -311 -7
-112 -40 -193 -96 -230 -70 -46 -154 -12 -207 83 -44 79 -58 169 -51 320 7
145 24 211 85 335 39 80 61 110 137 186 167 169 347 244 586 244 196 0 323
-44 430 -150 99 -97 143 -222 142 -401 -1 -175 -54 -325 -153 -432 l-46 -50
-39 13 c-60 20 -141 17 -173 -7 -34 -25 -41 -79 -15 -112 29 -35 79 -37 157
-6 61 24 71 26 94 14 87 -47 118 -242 63 -389 -44 -115 -138 -200 -221 -200
-54 0 -119 38 -156 93 -98 143 -141 406 -131 819 5 248 20 362 63 498 29 93
30 117 4 125 -71 23 -166 -145 -209 -370 -40 -202 -45 -568 -11 -745 62 -327
198 -490 409 -490 230 0 440 211 443 446 2 107 -61 203 -170 258 l-33 17 49
38 c210 166 305 430 242 675 -27 107 -63 169 -142 248 -145 145 -416 220 -678
187z"/>
</g>
</svg>
